<?xml version="1.0" standalone="no"?>
<!DOCTYPE svg PUBLIC "-//W3C//DTD SVG 20010904//EN"
 "http://www.w3.org/TR/2001/REC-SVG-20010904/DTD/svg10.dtd">
<svg version="1.0" xmlns="http://www.w3.org/2000/svg"
 width="640.000000pt" height="640.000000pt" viewBox="0 0 640.000000 640.000000"
 preserveAspectRatio="xMidYMid meet">
<metadata>
Created by potrace 1.14, written by Peter Selinger 2001-2017
</metadata>
<g transform="translate(0.000000,640.000000) scale(0.100000,-0.100000)"
fill="#000000" stroke="none">
<path d="M0 3200 l0 -3200 3200 0 3200 0 0 3200 0 3200 -3200 0 -3200 0 0
-3200z m3996 1460 c85 -22 203 -76 297 -136 85 -55 165 -57 465 -12 79 12 83
11 103 -9 33 -33 26 -62 -40 -166 -33 -53 -61 -99 -61 -102 0 -3 29 -5 64 -5
49 0 69 -5 90 -21 47 -37 37 -65 -61 -175 -211 -234 -190 -188 -288 -644 -142
-667 -542 -1204 -1100 -1475 -300 -146 -572 -203 -920 -192 -241 8 -427 42
-657 123 -111 39 -381 165 -410 191 -23 21 -23 68 0 91 16 16 42 20 168 25
247 11 413 47 573 125 63 31 71 38 56 47 -76 44 -238 176 -325 264 -114 114
-165 195 -176 274 -5 38 -3 48 16 67 19 19 29 21 68 16 l47 -6 -52 52 c-159
165 -284 392 -299 547 -9 90 11 104 129 86 l48 -8 -21 35 c-29 51 -78 189 -96
272 -8 39 -15 120 -15 181 1 156 32 265 87 301 33 22 70 6 89 -39 41 -97 377
-354 610 -467 224 -109 355 -140 591 -140 152 0 166 1 160 17 -4 9 -9 57 -13
107 -23 365 198 689 529 776 100 26 241 26 344 0z"/>
<path d="M3730 4544 c-222 -43 -398 -213 -456 -444 -21 -83 -21 -243 0 -333
21 -89 20 -93 -9 -122 -24 -25 -25 -25 -223 -25 -234 0 -322 13 -496 71 -261
87 -509 240 -729 451 -55 52 -81 70 -84 61 -3 -8 -3 -67 -1 -131 7 -144 42
-264 118 -395 79 -138 67 -168 -74 -190 l-75 -12 33 -76 c18 -42 54 -109 81
-148 54 -83 183 -222 255 -277 58 -44 75 -91 45 -124 -17 -19 -93 -40 -145
-40 -17 0 -30 -5 -30 -12 0 -6 51 -62 113 -123 114 -113 229 -202 349 -270
103 -59 104 -99 5 -169 -147 -104 -344 -175 -561 -201 l-59 -8 59 -24 c32 -13
109 -39 169 -58 645 -201 1283 -77 1783 347 210 178 411 467 526 758 59 151
87 251 136 485 64 308 83 353 208 495 l54 60 -47 0 c-46 0 -83 13 -97 34 -19
27 -5 70 47 151 30 46 55 86 55 88 0 2 -26 0 -57 -5 -32 -5 -112 -8 -178 -6
-133 4 -150 10 -277 92 -96 62 -211 98 -323 102 -49 1 -101 0 -115 -2z"/>
</g>
</svg>
